<?xml version="1.0" encoding="utf-8"?>
<!-- Generator: Adobe Illustrator 23.0.1, SVG Export Plug-In . SVG Version: 6.00 Build 0)  -->
<svg version="1.1" id="Layer_1" xmlns="http://www.w3.org/2000/svg" xmlns:xlink="http://www.w3.org/1999/xlink" x="0px" y="0px"
	 viewBox="0 0 597.91 523.04" style="enable-background:new 0 0 597.91 523.04;" xml:space="preserve">
<style type="text/css">
	.st0{fill:#FFFFFF;}
</style>
<g>
	<g>
		<path class="st0" d="M330.23,92.86c2.2-0.69,2.98-2.79,4.11-4.49c6.55-9.85,13.04-19.75,19.54-29.63
			c6.29-9.57,12.68-19.07,18.83-28.73c3.3-5.18,7.75-8.88,13.1-11.62c8.42-4.31,17.35-7.07,26.83-7.32
			c7.7-0.2,15.16,1.27,22.11,4.89c10.51,5.46,18.11,13.8,23.94,23.92c5.66,9.82,9.65,20.31,12.44,31.27
			c2.02,7.94,3.71,15.96,5.94,23.84c3.09,10.91,7.84,21.06,14.68,30.2c9.71,12.99,22.46,21.56,37.88,26.27
			c10.51,3.21,21.28,4.12,32.24,3.74c5.74-0.2,11.4-0.76,17.01-1.96c1.46-0.31,3.06-0.42,4.52-0.18c3.85,0.63,6.67,3.63,7.1,7.23
			c0.53,4.36-1.11,7.67-4.97,9.35c-1.9,0.83-3.98,1.35-6.03,1.69c-10.02,1.66-20.12,1.85-30.24,1.38
			c-13.71-0.63-26.79-3.85-39.1-9.89c-16.17-7.93-28.96-19.62-38.2-35.13c-7.3-12.25-12-25.49-14.94-39.39
			c-2.57-12.15-5.84-24.07-11.37-35.28c-3.25-6.58-7.39-12.44-12.97-17.25c-6.45-5.56-13.91-7.63-22.28-6.62
			c-4.37,0.53-8.58,1.66-12.71,3.24c-5.57,2.13-9.78,5.75-12.99,10.73c-4.34,6.74-8.78,13.41-13.18,20.11
			c-7.55,11.48-15.1,22.96-22.64,34.44c-0.42,0.64-0.82,1.29-1.26,1.91c-2.35,3.31-1.38,4.59,1.19,6.61
			c19.73,15.49,34.76,34.72,44.99,57.61c6.33,14.18,10.54,28.95,12.42,44.45c1.3,10.68,1.49,21.37,0.65,31.99
			c-1.54,19.57-6.75,38.25-15.74,55.79c-3.3,6.45-6.95,12.69-10.94,18.75c-29.51,44.77-58.78,89.71-88.48,134.35
			c-20.87,31.36-49.65,52.26-85.88,62.88c-16.67,4.88-33.66,6.35-50.93,5.66c-22.91-0.92-44.31-7.19-64.43-18.03
			c-25.66-13.82-45.94-33.28-60.44-58.55c-9.67-16.86-16.13-34.91-18.76-54.27c-1.1-8.14-2.16-16.27-1.91-24.49
			c0.82-26.36,6.92-51.25,20.22-74.28c4.78-8.28,10.1-16.18,15.32-24.14c26.36-40.22,52.79-80.4,79.27-120.53
			c13.56-20.55,30.79-37.28,52.23-49.57c16.05-9.2,33.18-15.51,51.41-18.52c14.93-2.47,29.97-2.58,45.05-0.83
			c19.01,2.2,36.79,8.12,53.65,17.03c0.84,0.44,1.68,0.91,2.55,1.29C329.38,92.88,329.79,92.82,330.23,92.86z M389.66,222.64
			c0.13-10.72-1.98-23.1-5.95-35.53c-11.37-35.61-33.31-62.66-66.31-80.4c-21.81-11.73-45.19-16.75-69.98-15.69
			c-14.25,0.61-27.96,3.39-41.27,8.35c-27.49,10.25-49.64,27.46-65.84,51.88c-30.59,46.1-60.88,92.41-91.24,138.66
			c-2.51,3.82-4.88,7.75-6.91,11.84c-12.64,25.43-17.71,52.24-13.8,80.49c2.87,20.69,9.97,39.86,21.56,57.33
			c12.26,18.5,28.2,33.09,47.5,43.81c17.54,9.75,36.45,15.19,56.61,16.64c11.16,0.81,22.13,0.03,33.03-1.81
			c17.69-2.99,34.12-9.49,49.28-19.11c15.66-9.93,29.07-22.35,39.31-37.81c30.86-46.61,61.48-93.37,92.17-140.1
			c1.88-2.86,3.57-5.86,5.22-8.86C384.18,272.02,389.67,250.27,389.66,222.64z"/>
		<path class="st0" d="M242.53,252.94c-8.16,0.36-10.85-8.02-7.97-12.67c0.6-0.97,1.2-1.94,1.83-2.9
			c22.08-33.59,44.15-67.18,66.24-100.77c0.84-1.27,1.64-2.59,2.62-3.74c2.99-3.53,7.49-4.14,11.29-1.62
			c3.64,2.41,4.86,7.08,2.83,11.09c-0.6,1.18-1.38,2.28-2.11,3.39c-22.09,33.59-44.17,67.17-66.27,100.75
			c-0.73,1.11-1.46,2.23-2.23,3.32C247.21,251.98,245.08,253.03,242.53,252.94z"/>
	</g>
</g>
</svg>
